<?xml version="1.0" encoding="UTF-8"?>
<svg xmlns="http://www.w3.org/2000/svg" xmlns:xlink="http://www.w3.org/1999/xlink" width="96pt" height="96pt" viewBox="0 0 96 96" version="1.1">
<g id="surface762088">
<path style=" stroke:none;fill-rule:nonzero;fill:rgb(56.470588%,64.313725%,68.235294%);fill-opacity:1;" d="M 34 65.800781 L 36 78 L 38 76 L 40 68 Z M 34 65.800781 "/>
<path style=" stroke:none;fill-rule:nonzero;fill:rgb(100%,56.078431%,0%);fill-opacity:1;" d="M 48 79 L 48 87 L 50 87 L 50 77 Z M 48 79 "/>
<path style=" stroke:none;fill-rule:nonzero;fill:rgb(56.470588%,64.313725%,68.235294%);fill-opacity:1;" d="M 44 70 C 44.398438 71.199219 48 80 48 80 L 50 78 L 50 68 Z M 44 70 "/>
<path style=" stroke:none;fill-rule:nonzero;fill:rgb(96.078431%,49.803922%,9.019608%);fill-opacity:1;" d="M 32 6 L 32 13.199219 L 35.601562 10.601562 C 35.601562 10.601562 35 8.601562 32 6 Z M 32 6 "/>
<path style=" stroke:none;fill-rule:nonzero;fill:rgb(100%,56.078431%,0%);fill-opacity:1;" d="M 36 84 L 36 78 L 38 76 L 38 85 Z M 36 84 "/>
<path style=" stroke:none;fill-rule:nonzero;fill:rgb(29.019608%,7.843137%,54.901961%);fill-opacity:1;" d="M 43.199219 10.199219 C 42.199219 9 40.199219 8 39 8 C 32 8 22.398438 18.199219 19.601562 24.800781 C 18.199219 27.398438 14.199219 37.800781 14 47 C 13.800781 54.398438 32 70 43.601562 70 C 49.800781 70 65.800781 61 73.800781 51 C 74.800781 49.601562 82 42 82 42 L 80 42 L 80 40 L 78 39 L 78 36 L 76 36 L 76 34 C 71.800781 39.601562 64 44 64 44 C 64 44 51.398438 34 44.199219 34 C 36.800781 34 34 36 34 36 C 34 36 36.398438 29.800781 38 27.199219 C 40.601562 23 44.800781 21.601562 45.800781 17.601562 C 46 17.199219 46 16.800781 46 16.199219 C 46 15.800781 46 15.199219 45.800781 14.601562 C 45.601562 13.601562 45 12.199219 43.199219 10.199219 Z M 43.199219 10.199219 "/>
<path style=" stroke:none;fill-rule:nonzero;fill:rgb(100%,56.078431%,0%);fill-opacity:1;" d="M 51 90 C 50.601562 90 50.398438 89.800781 50.199219 89.601562 L 49 87.800781 L 47.800781 89.601562 C 47.398438 90 46.800781 90.199219 46.398438 89.800781 C 46 89.398438 45.800781 88.800781 46.199219 88.398438 L 49 84.199219 L 51.800781 88.398438 C 52.199219 88.800781 52 89.398438 51.601562 89.800781 C 51.398438 90 51.199219 90 51 90 Z M 51 90 "/>
<path style=" stroke:none;fill-rule:nonzero;fill:rgb(48.235294%,12.156863%,63.529412%);fill-opacity:1;" d="M 40 44 C 40 44 45.800781 44.199219 52 45.601562 C 57.398438 46.800781 62 48.601562 62 49.398438 C 62 50.800781 58.800781 54 55 57 C 51.199219 60 43.398438 64 41 64 C 38.199219 64 32 60.398438 32 60.398438 L 38 58.601562 L 36 55 L 40 53.199219 L 38 51.398438 C 38 51.398438 42 48.601562 42 47.800781 C 42 47 40 44 40 44 Z M 18 38 C 18.800781 38 20 36 20 36 C 20 36 20.199219 40.199219 22 42 L 24 38 L 26 40 L 28 38 C 28 38 28 39.800781 30 42 C 32.199219 41 34 36 34 36 C 34 36 36.398438 29.800781 38 27.199219 C 41 22.398438 46 21.199219 46 16.199219 C 46 16 46 15.800781 46 15.398438 L 46 15.199219 C 45.800781 13.601562 45.398438 12.398438 43.199219 10.199219 C 42.199219 9 40.199219 8 39 8 C 32 8 22.398438 18.199219 19.601562 24.800781 C 18.800781 26.398438 17 30.800781 15.800781 36 C 15.800781 37.398438 17.800781 38 18 38 Z M 18 38 "/>
<path style=" stroke:none;fill-rule:nonzero;fill:rgb(100%,56.078431%,0%);fill-opacity:1;" d="M 33 88 C 32.601562 88 32.199219 87.800781 32.199219 87.398438 C 32 87 32.199219 86.398438 32.601562 86 L 32.800781 85.800781 L 31 85.800781 C 30.398438 85.800781 30 85.398438 30 84.800781 C 30 84.199219 30.398438 83.800781 31 83.800781 L 37 83.800781 C 37.398438 83.800781 37.800781 84.199219 38 84.601562 C 38.199219 85 37.800781 85.601562 37.398438 85.800781 L 33.398438 87.800781 C 33.398438 88 33.199219 88 33 88 Z M 33 88 "/>
<path style=" stroke:none;fill-rule:nonzero;fill:rgb(12.941176%,12.941176%,12.941176%);fill-opacity:1;" d="M 41.601562 14.601562 C 40.800781 13.800781 39.601562 13.800781 39 14.398438 L 34.800781 18.398438 C 34 19.199219 34 20.398438 34.601562 21.199219 C 35.199219 22 36.601562 22 37.199219 21.398438 L 41.398438 17.398438 C 42.199219 16.800781 42.199219 15.398438 41.601562 14.601562 Z M 41.601562 14.601562 "/>
<path style=" stroke:none;fill-rule:nonzero;fill:rgb(100%,87.843137%,50.980392%);fill-opacity:1;" d="M 40 12 C 39 12 38 12.398438 37.398438 13 L 33.199219 17 C 31.601562 18.398438 31.601562 21 33 22.601562 C 33.800781 23.398438 34.800781 24 36 24 C 37 24 38 23.601562 38.601562 23 L 42.800781 19 C 44.398438 17.601562 44.398438 15 43 13.398438 C 42.199219 12.398438 41.199219 12 40 12 Z M 41.398438 17.398438 L 37.199219 21.398438 C 36.800781 21.800781 36.398438 22 36 22 C 35.398438 22 35 21.800781 34.601562 21.398438 C 33.800781 20.601562 34 19.398438 34.800781 18.601562 L 39 14.601562 C 39.199219 14.199219 39.601562 14 40 14 C 40.601562 14 41 14.199219 41.398438 14.601562 C 42.199219 15.398438 42.199219 16.800781 41.398438 17.398438 Z M 41.398438 17.398438 "/>
</g>
</svg>
